<?xml version="1.0" encoding="UTF-8" standalone="no"?>
<svg
   xmlns:dc="http://purl.org/dc/elements/1.1/"
   xmlns:cc="http://creativecommons.org/ns#"
   xmlns:rdf="http://www.w3.org/1999/02/22-rdf-syntax-ns#"
   xmlns:svg="http://www.w3.org/2000/svg"
   xmlns="http://www.w3.org/2000/svg"
   xmlns:sodipodi="http://sodipodi.sourceforge.net/DTD/sodipodi-0.dtd"
   xmlns:inkscape="http://www.inkscape.org/namespaces/inkscape"
   width="428.14691mm"
   height="428.62057mm"
   viewBox="0 0 428.14691 428.62057"
   version="1.1"
   id="svg1171"
   inkscape:version="1.0.2 (e86c870879, 2021-01-15)"
   sodipodi:docname="clerc.svg">
  <defs
     id="defs1165">
    <clipPath
       clipPathUnits="userSpaceOnUse"
       id="clipPath1045">
      <path
         d="M 0,2020 H 2020 V 0 H 0 Z"
         id="path1043" />
    </clipPath>
  </defs>
  <sodipodi:namedview
     id="base"
     pagecolor="#ffffff"
     bordercolor="#666666"
     borderopacity="1.0"
     inkscape:pageopacity="0.0"
     inkscape:pageshadow="2"
     inkscape:zoom="0.35"
     inkscape:cx="1306.2394"
     inkscape:cy="989.99166"
     inkscape:document-units="mm"
     inkscape:current-layer="layer1"
     inkscape:document-rotation="0"
     showgrid="false"
     inkscape:window-width="1920"
     inkscape:window-height="1023"
     inkscape:window-x="0"
     inkscape:window-y="0"
     inkscape:window-maximized="1" />
  <metadata
     id="metadata1168">
    <rdf:RDF>
      <cc:Work
         rdf:about="">
        <dc:format>image/svg+xml</dc:format>
        <dc:type
           rdf:resource="http://purl.org/dc/dcmitype/StillImage" />
        <dc:title></dc:title>
      </cc:Work>
    </rdf:RDF>
  </metadata>
  <g
     inkscape:label="Calque 1"
     inkscape:groupmode="layer"
     id="layer1"
     transform="translate(373.57941,325.43529)">
    <g
       id="g1039"
       transform="matrix(0.35277777,0,0,-0.35277777,-515.8115,244.4271)"
       style="fill:#bab468;fill-opacity:1">
      <g
         id="g1041"
         clip-path="url(#clipPath1045)"
         style="fill:#bab468;fill-opacity:1">
        <g
           id="g1047"
           transform="translate(1124.1724,642.7925)"
           style="fill:#bab468;fill-opacity:1">
          <path
             d="M 0,0 -4.207,8.2 C -48.021,-5.703 -90.034,-9.582 -125.392,-9.023 -155.426,-7.708 -189.122,-2.91 -224.138,8.2 L -228.345,0 c 0,0 110.739,-75.341 110.739,-242.422 h 7.658 C -109.948,-75.341 0,0 0,0"
             style="fill:#bab468;fill-opacity:1;fill-rule:nonzero;stroke:none"
             id="path1049" />
        </g>
        <g
           id="g1051"
           transform="translate(645.5996,893.3462)"
           style="fill:#bab468;fill-opacity:1">
          <path
             d="M 0,0 8.2,4.207 C -5.703,48.021 -9.582,90.034 -9.023,125.392 -7.708,155.426 -2.91,189.122 8.2,224.138 L 0,228.345 c 0,0 -75.341,-110.739 -242.422,-110.739 v -7.658 C -75.341,109.948 0,0 0,0"
             style="fill:#bab468;fill-opacity:1;fill-rule:nonzero;stroke:none"
             id="path1053" />
        </g>
        <g
           id="g1055"
           transform="translate(1374.4004,1121.6914)"
           style="fill:#bab468;fill-opacity:1">
          <path
             d="M 0,0 -8.2,-4.207 C 5.703,-48.021 9.582,-90.034 9.023,-125.392 7.708,-155.426 2.91,-189.122 -8.2,-224.138 l 8.2,-4.207 c 0,0 75.341,110.739 242.422,110.739 v 7.658 C 75.341,-109.948 0,0 0,0"
             style="fill:#bab468;fill-opacity:1;fill-rule:nonzero;stroke:none"
             id="path1057" />
        </g>
        <g
           id="g1059"
           transform="translate(876.5518,1226.084)"
           style="fill:#bab468;fill-opacity:1">
          <path
             d="M 0,0 V -87.88 H -81.371 L -345.012,226.211 Z"
             style="fill:#bab468;fill-opacity:1;fill-rule:nonzero;stroke:none"
             id="path1061" />
        </g>
        <g
           id="g1063"
           transform="translate(788.6714,876.2241)"
           style="fill:#bab468;fill-opacity:1">
          <path
             d="M 0,0 H 87.88 V -81.371 L -226.211,-345.012 Z"
             style="fill:#bab468;fill-opacity:1;fill-rule:nonzero;stroke:none"
             id="path1065" />
        </g>
        <g
           id="g1067"
           transform="translate(1306.4775,1099.9766)"
           style="fill:#bab468;fill-opacity:1">
          <path
             d="m 0,0 -37.835,-19.834 h -186.019 v 186.019 l 19.834,37.835 c 0,0 -27.158,9.154 -92.458,9.154 -54.315,0 -92.457,-9.154 -92.457,-9.154 l 19.834,-37.835 V -19.834 H -555.12 L -592.955,0 c 0,0 -9.154,-27.157 -9.154,-92.458 0,-54.314 9.154,-92.457 9.154,-92.457 l 37.835,19.834 h 186.019 V -351.1 l -19.834,-37.835 c 0,0 27.157,-9.154 92.457,-9.154 54.315,0 92.458,9.154 92.458,9.154 l -19.834,37.835 v 186.019 H -37.835 L 0,-184.915 c 0,0 9.154,27.158 9.154,92.457 C 9.154,-38.142 0,0 0,0"
             style="fill:#bab468;fill-opacity:1;fill-rule:nonzero;stroke:none"
             id="path1069" />
        </g>
        <g
           id="g1071"
           transform="translate(1143.1255,1226.084)"
           style="fill:#bab468;fill-opacity:1">
          <path
             d="M 0,0 V -87.88 H 81.371 L 345.012,226.211 Z"
             style="fill:#bab468;fill-opacity:1;fill-rule:nonzero;stroke:none"
             id="path1073" />
        </g>
        <g
           id="g1075"
           transform="translate(1231.0059,876.2241)"
           style="fill:#bab468;fill-opacity:1">
          <path
             d="M 0,0 H -87.88 V -81.371 L 226.211,-345.012 Z"
             style="fill:#bab468;fill-opacity:1;fill-rule:nonzero;stroke:none"
             id="path1077" />
        </g>
        <g
           id="g1079"
           transform="translate(895.8276,1372.936)"
           style="fill:#bab468;fill-opacity:1">
          <path
             d="M 0,0 4.207,-8.199 C 48.021,5.703 90.034,9.582 125.392,9.023 155.426,7.708 189.122,2.911 224.138,-8.199 L 228.345,0 c 0,0 -110.739,75.341 -110.739,242.422 h -7.658 C 109.948,75.341 0,0 0,0"
             style="fill:#bab468;fill-opacity:1;fill-rule:nonzero;stroke:none"
             id="path1081" />
        </g>
      </g>
    </g>
  </g>
</svg>
