<?xml version="1.0" encoding="UTF-8" standalone="no"?>
<!-- Created with Inkscape (http://www.inkscape.org/) -->

<svg
   xmlns:dc="http://purl.org/dc/elements/1.1/"
   xmlns:cc="http://creativecommons.org/ns#"
   xmlns:rdf="http://www.w3.org/1999/02/22-rdf-syntax-ns#"
   xmlns:svg="http://www.w3.org/2000/svg"
   xmlns="http://www.w3.org/2000/svg"
   xmlns:sodipodi="http://sodipodi.sourceforge.net/DTD/sodipodi-0.dtd"
   xmlns:inkscape="http://www.inkscape.org/namespaces/inkscape"
   id="svg3411"
   version="1.1"
   inkscape:version="0.91 r13725"
   width="20.1"
   height="20.1"
   viewBox="0 0 20.1 20.1"
   sodipodi:docname="dragon_blanc.svg">
  <metadata
     id="metadata3417">
    <rdf:RDF>
      <cc:Work
         rdf:about="">
        <dc:format>image/svg+xml</dc:format>
        <dc:type
           rdf:resource="http://purl.org/dc/dcmitype/StillImage" />
        <dc:title></dc:title>
      </cc:Work>
    </rdf:RDF>
  </metadata>
  <defs
     id="defs3415" />
  <sodipodi:namedview
     pagecolor="#ffffff"
     bordercolor="#666666"
     borderopacity="1"
     objecttolerance="10"
     gridtolerance="10"
     guidetolerance="10"
     inkscape:pageopacity="0"
     inkscape:pageshadow="2"
     inkscape:window-width="1920"
     inkscape:window-height="1029"
     id="namedview3413"
     showgrid="false"
     inkscape:zoom="32"
     inkscape:cx="15.570665"
     inkscape:cy="10.028675"
     inkscape:window-x="0"
     inkscape:window-y="0"
     inkscape:window-maximized="1"
     inkscape:current-layer="svg3411" />
  <path
     style="fill:#ffffff;fill-opacity:1"
     d="M 6.0582228,19.481747 C 5.006205,17.797199 6.0879678,15.536726 8.7077148,13.945313 11.960909,11.969103 13.408058,9.5242749 12.051378,8.2964964 10.721427,7.0929069 9.2411214,8.141793 8.4981294,10.814189 L 8.0016294,12.6 6.5875482,12.6 C 5.6965722,12.6 5.0353119,12.766467 4.8,13.05 4.5709686,13.325966 3.947643,13.49084 3.1882665,13.476316 L 1.95,13.452632 2.85,13.13717 C 3.345,12.963665 3.980721,12.620904 4.2627132,12.375477 4.5447054,12.13005 5.2150983,11.839324 5.7524754,11.729418 L 6.7295241,11.529591 7.1112186,10.211252 C 7.5952107,8.5395867 7.444674,8.385756 6.6473082,9.7371906 6.1616754,10.560277 5.8267479,10.8 5.1624117,10.8 c -0.529722,0 -1.1304144,0.29016 -1.5705147,0.758625 -0.3919806,0.417245 -0.9440854,0.720995 -1.2268999,0.675 -0.2828145,-0.04599 -0.8466093,0.228132 -1.2528774,0.609168 L 0.37345038,13.535585 0.17396512,12.472238 C -0.04876449,11.284987 0.35519604,9.4390407 1.0343228,8.5407306 L 1.480918,7.95 1.4904589,8.6072949 C 1.5064987,9.7122975 1.9846611,9.6503868 3.1173347,8.3966526 3.8508171,7.5847752 4.2,6.9098073 4.2,6.3038688 c 0,-0.571953 0.3212973,-1.247616 0.8912061,-1.8741357 0.7072668,-0.7775229 0.8930208,-0.867204 0.9,-0.4345167 C 6.0037101,4.7705523 7.1772948,4.3855854 7.95,3.3526791 9.8251944,0.84603015 11.653614,-0.09406429 13.4089,0.54594897 L 14.25,0.85263159 13.491752,0.87631578 C 12.473809,0.90811167 11.4,1.6990339 11.4,2.4170112 c 0,0.3206438 0.03375,0.5809562 0.075,0.5784719 0.04125,-0.00248 0.615,-0.1990588 1.275,-0.4368321 1.606587,-0.5787934 3.055916,-0.5525742 4.465699,0.080787 l 1.165699,0.5237038 -1.907672,0.3940233 C 14.45928,3.973242 14.487164,4.2500844 16.581414,4.6263291 17.649605,4.8182361 19.8,6.3542454 19.8,6.9253386 c 0,0.1447506 -0.6075,0.179916 -1.35,0.078145 -1.628242,-0.2231757 -1.679548,-0.0059 -0.286832,1.2147231 0.771536,0.6761979 1.111941,1.2609588 1.240974,2.1317931 l 0.177805,1.2 -0.882389,-0.825 c -1.219347,-1.1400423 -1.498769,-1.043913 -1.744045,0.6 -0.452256,3.031162 -1.615425,4.377449 -4.698493,5.43818 -2.118617,0.728911 -3.8564278,1.622624 -4.9587379,2.550157 L 6.4164459,20.055353 6.0582228,19.481747 Z"
     id="path3421"
     inkscape:connector-curvature="0" />
  <path
     style="fill:#9b1c47;fill-opacity:0"
     d="M 6.2220931,19.726959 C 5.9359937,19.264779 5.8930502,19.180826 5.8053632,18.91227 5.424034,17.744386 5.8853568,16.419641 7.0946922,15.209803 7.5765184,14.727776 7.9793656,14.416746 8.7629715,13.921757 9.8294517,13.248082 10.492933,12.729274 11.163625,12.04457 12.078934,11.11014 12.559771,10.212831 12.559982,9.4387721 12.560052,9.174849 12.517955,8.9774914 12.417746,8.7719686 12.156041,8.2352269 11.482707,7.793158 10.926877,7.793158 c -0.770854,0 -1.5341506,0.7186117 -2.0566023,1.9362037 C 8.804642,9.8823215 8.708812,10.129653 8.6573196,10.278986 8.5843406,10.490634 8.1885507,11.873463 8.0254691,12.486575 l -0.025921,0.09745 -1.0047564,0.01117 c -1.0313515,0.01146 -1.1997723,0.0248 -1.5924758,0.126106 -0.2337501,0.0603 -0.4595848,0.177979 -0.5996032,0.312442 -0.1612321,0.154835 -0.2689768,0.218324 -0.4955854,0.292026 -0.3345376,0.108805 -0.5854145,0.133002 -1.3789764,0.133002 -0.4008979,0 -0.7633796,-0.0069 -0.8055149,-0.01532 -0.067342,-0.01347 -0.018639,-0.03565 0.4025877,-0.183317 0.7847275,-0.275108 1.24207,-0.503336 1.7025173,-0.84961 0.2841322,-0.213678 0.6982387,-0.423264 1.0805398,-0.546877 0.1551579,-0.05017 0.5307105,-0.14187 0.8345614,-0.203783 0.3038509,-0.06191 0.5649219,-0.124156 0.5801577,-0.13832 0.031402,-0.02919 0.4373382,-1.423829 0.5651747,-1.9417183 C 7.389207,9.1705248 7.4087859,8.8469066 7.3334268,8.8318534 7.2432676,8.8138441 7.0076185,9.1186872 6.6507897,9.7149344 6.2878368,10.321414 6.0197444,10.596834 5.6718964,10.720579 c -0.05776,0.02055 -0.27535,0.05184 -0.4835324,0.06953 -0.6822629,0.05798 -1.0315227,0.224232 -1.5956436,0.759545 -0.3137829,0.297759 -0.5851816,0.490787 -0.8414204,0.598447 -0.1422452,0.05977 -0.2062749,0.07241 -0.3933046,0.07768 -0.2496854,0.007 -0.3894525,0.04731 -0.6642747,0.191429 -0.2433717,0.127624 -0.4290666,0.274106 -0.88330942,0.696782 -0.22002022,0.20473 -0.40879736,0.370482 -0.41950473,0.368337 -0.0107074,-0.0021 -0.0710857,-0.270152 -0.13417416,-0.595571 l -0.1147062,-0.59167 -0.001492,-0.552456 c -0.001243,-0.460234 0.007263,-0.608793 0.0509524,-0.889938 0.11297651,-0.727011 0.3639594,-1.503479 0.64250554,-1.9877249 0.052746,-0.091698 0.2135652,-0.3240628 0.3573759,-0.5163665 l 0.2614739,-0.3496434 0.014884,0.1498189 c 0.00819,0.0824 0.01612,0.2721782 0.017632,0.421729 0.00151,0.1495508 0.01429,0.3343467 0.028397,0.4106578 0.084934,0.4594519 0.3495797,0.533718 0.7732233,0.2169853 C 2.7307421,8.8663742 3.3720567,8.1693504 3.7310855,7.6285966 4.037847,7.1665653 4.1748954,6.7844805 4.2133503,6.2840648 4.2415667,5.916883 4.2968692,5.7007315 4.440151,5.3976101 4.6308635,4.9941448 4.9221161,4.6034777 5.3811982,4.1353501 5.6425041,3.8688958 5.7950579,3.7496492 5.8746311,3.7496492 c 0.072201,0 0.082564,0.022362 0.1056127,0.2278853 0.032072,0.2859828 0.1340308,0.4065201 0.3596939,0.4252338 0.2387597,0.0198 0.5009446,-0.072082 0.8295032,-0.2906978 C 7.4542819,3.922544 7.7212475,3.657622 8.037733,3.2504258 9.3920505,1.5079347 10.618065,0.59499866 11.867228,0.39884147 c 0.320556,-0.0503372 0.815762,-0.0357255 1.116667,0.0329486 0.210788,0.048107 1.123822,0.36526037 1.162301,0.40373891 0.01438,0.0143824 -0.100414,0.0228039 -0.317161,0.0232671 -0.54059,0.001155 -0.834981,0.053037 -1.206943,0.21270475 -0.450842,0.1935279 -0.830079,0.484579 -1.032412,0.7923417 -0.168853,0.2568363 -0.193387,0.3465579 -0.187818,0.6868593 0.0052,0.3180857 0.02586,0.4311114 0.08073,0.4416835 0.01933,0.00372 0.401761,-0.1203585 0.849853,-0.2757395 0.448091,-0.1553809 0.934016,-0.3141016 1.079834,-0.3527126 1.141405,-0.3022318 2.262123,-0.2732475 3.295866,0.085238 0.202317,0.07016 1.382197,0.5811313 1.56347,0.6770927 0.04534,0.024 0.05168,0.035072 0.02526,0.044123 -0.01939,0.00665 -0.326185,0.071355 -0.681755,0.1437991 -1.723885,0.3512246 -2.137553,0.452763 -2.421403,0.5943545 -0.285347,0.1423378 -0.281276,0.2488563 0.01469,0.3842605 0.184242,0.084292 0.564651,0.1843492 1.112657,0.2926574 0.512668,0.1013242 0.725964,0.172608 1.153812,0.3856066 0.687397,0.3422114 1.427152,0.8614954 1.891825,1.3279993 0.304485,0.305685 0.419421,0.4768242 0.406839,0.605779 -0.0065,0.066961 -0.01929,0.079076 -0.113154,0.1074207 -0.136213,0.041135 -0.96458,0.022407 -1.304737,-0.029499 -0.129298,-0.01973 -0.394307,-0.04269 -0.588908,-0.051023 -0.364584,-0.015611 -0.487015,0.00122 -0.563236,0.077445 -0.127041,0.1270402 0.09486,0.4415147 0.684936,0.9706624 0.960965,0.8617481 1.264395,1.2908893 1.438794,2.0348871 0.04744,0.202377 0.244137,1.472113 0.230207,1.486043 -0.0037,0.0037 -0.227995,-0.200369 -0.49846,-0.453462 -0.270464,-0.253093 -0.583741,-0.537924 -0.696169,-0.632959 -0.590826,-0.4994181 -0.868218,-0.5736177 -1.083989,-0.289957 -0.132381,0.174033 -0.203554,0.436775 -0.344725,1.272576 -0.05197,0.307689 -0.120905,0.674134 -0.15319,0.814322 -0.454202,1.972241 -1.331748,3.092208 -3.103505,3.960844 -0.432041,0.211816 -0.785751,0.355307 -1.544056,0.626386 -1.713621,0.612586 -2.9786632,1.213221 -4.0510321,1.923409 -0.3664766,0.242703 -0.610566,0.431669 -1.187193,0.919086 -0.2392017,0.202194 -0.4454912,0.373706 -0.458421,0.381137 -0.01293,0.0074 -0.1095039,-0.12541 -0.2146088,-0.295203 z"
     id="path4282"
     inkscape:connector-curvature="0" />
  <path
     style="fill:#9b1c47;fill-opacity:0;stroke:none"
     d="M 6.2220931,19.726959 C 5.9359937,19.264779 5.8930502,19.180826 5.8053632,18.91227 5.424034,17.744386 5.8853568,16.419641 7.0946922,15.209803 7.5765184,14.727776 7.9793656,14.416746 8.7629715,13.921757 9.8294517,13.248082 10.492933,12.729274 11.163625,12.04457 12.078934,11.11014 12.559771,10.212831 12.559982,9.4387721 12.560052,9.174849 12.517955,8.9774914 12.417746,8.7719686 12.156041,8.2352269 11.482707,7.793158 10.926877,7.793158 c -0.770854,0 -1.5341506,0.7186117 -2.0566023,1.9362037 C 8.804642,9.8823215 8.708812,10.129653 8.6573196,10.278986 8.5843406,10.490634 8.1885507,11.873463 8.0254691,12.486575 l -0.025921,0.09745 -1.0047564,0.01117 c -1.0313515,0.01146 -1.1997723,0.0248 -1.5924758,0.126106 -0.2337501,0.0603 -0.4595848,0.177979 -0.5996032,0.312442 -0.1612321,0.154835 -0.2689768,0.218324 -0.4955854,0.292026 -0.3345376,0.108805 -0.5854145,0.133002 -1.3789764,0.133002 -0.4008979,0 -0.7633796,-0.0069 -0.8055149,-0.01532 -0.067342,-0.01347 -0.018639,-0.03565 0.4025877,-0.183317 0.7847275,-0.275108 1.24207,-0.503336 1.7025173,-0.84961 0.2841322,-0.213678 0.6982387,-0.423264 1.0805398,-0.546877 0.1551579,-0.05017 0.5307105,-0.14187 0.8345614,-0.203783 0.3038509,-0.06191 0.5649219,-0.124156 0.5801577,-0.13832 0.031402,-0.02919 0.4373382,-1.423829 0.5651747,-1.9417183 C 7.389207,9.1705248 7.4087859,8.8469066 7.3334268,8.8318534 7.2432676,8.8138441 7.0076185,9.1186872 6.6507897,9.7149344 6.2878368,10.321414 6.0197444,10.596834 5.6718964,10.720579 c -0.05776,0.02055 -0.27535,0.05184 -0.4835324,0.06953 -0.6822629,0.05798 -1.0315227,0.224232 -1.5956436,0.759545 -0.3137829,0.297759 -0.5851816,0.490787 -0.8414204,0.598447 -0.1422452,0.05977 -0.2062749,0.07241 -0.3933046,0.07768 -0.2496854,0.007 -0.3894525,0.04731 -0.6642747,0.191429 -0.2433717,0.127624 -0.4290666,0.274106 -0.88330942,0.696782 -0.22002022,0.20473 -0.40879736,0.370482 -0.41950473,0.368337 -0.0107074,-0.0021 -0.0710857,-0.270152 -0.13417416,-0.595571 l -0.1147062,-0.59167 -0.001492,-0.552456 c -0.001243,-0.460234 0.007263,-0.608793 0.0509524,-0.889938 0.11297651,-0.727011 0.3639594,-1.503479 0.64250554,-1.9877249 0.052746,-0.091698 0.2135652,-0.3240628 0.3573759,-0.5163665 l 0.2614739,-0.3496434 0.014884,0.1498189 c 0.00819,0.0824 0.01612,0.2721782 0.017632,0.421729 0.00151,0.1495508 0.01429,0.3343467 0.028397,0.4106578 0.084934,0.4594519 0.3495797,0.533718 0.7732233,0.2169853 C 2.7307421,8.8663742 3.3720567,8.1693504 3.7310855,7.6285966 4.037847,7.1665653 4.1748954,6.7844805 4.2133503,6.2840648 4.2415667,5.916883 4.2968692,5.7007315 4.440151,5.3976101 4.6308635,4.9941448 4.9221161,4.6034777 5.3811982,4.1353501 5.6425041,3.8688958 5.7950579,3.7496492 5.8746311,3.7496492 c 0.072201,0 0.082564,0.022362 0.1056127,0.2278853 0.032072,0.2859828 0.1340308,0.4065201 0.3596939,0.4252338 0.2387597,0.0198 0.5009446,-0.072082 0.8295032,-0.2906978 C 7.4542819,3.922544 7.7212475,3.657622 8.037733,3.2504258 9.3920505,1.5079347 10.618065,0.59499866 11.867228,0.39884147 c 0.320556,-0.0503372 0.815762,-0.0357255 1.116667,0.0329486 0.210788,0.048107 1.123822,0.36526037 1.162301,0.40373891 0.01438,0.0143824 -0.100414,0.0228039 -0.317161,0.0232671 -0.54059,0.001155 -0.834981,0.053037 -1.206943,0.21270475 -0.450842,0.1935279 -0.830079,0.484579 -1.032412,0.7923417 -0.168853,0.2568363 -0.193387,0.3465579 -0.187818,0.6868593 0.0052,0.3180857 0.02586,0.4311114 0.08073,0.4416835 0.01933,0.00372 0.401761,-0.1203585 0.849853,-0.2757395 0.448091,-0.1553809 0.934016,-0.3141016 1.079834,-0.3527126 1.141405,-0.3022318 2.262123,-0.2732475 3.295866,0.085238 0.202317,0.07016 1.382197,0.5811313 1.56347,0.6770927 0.04534,0.024 0.05168,0.035072 0.02526,0.044123 -0.01939,0.00665 -0.326185,0.071355 -0.681755,0.1437991 -1.723885,0.3512246 -2.137553,0.452763 -2.421403,0.5943545 -0.285347,0.1423378 -0.281276,0.2488563 0.01469,0.3842605 0.184242,0.084292 0.564651,0.1843492 1.112657,0.2926574 0.512668,0.1013242 0.725964,0.172608 1.153812,0.3856066 0.687397,0.3422114 1.427152,0.8614954 1.891825,1.3279993 0.304485,0.305685 0.419421,0.4768242 0.406839,0.605779 -0.0065,0.066961 -0.01929,0.079076 -0.113154,0.1074207 -0.136213,0.041135 -0.96458,0.022407 -1.304737,-0.029499 -0.129298,-0.01973 -0.394307,-0.04269 -0.588908,-0.051023 -0.364584,-0.015611 -0.487015,0.00122 -0.563236,0.077445 -0.127041,0.1270402 0.09486,0.4415147 0.684936,0.9706624 0.960965,0.8617481 1.264395,1.2908893 1.438794,2.0348871 0.04744,0.202377 0.244137,1.472113 0.230207,1.486043 -0.0037,0.0037 -0.227995,-0.200369 -0.49846,-0.453462 -0.270464,-0.253093 -0.583741,-0.537924 -0.696169,-0.632959 -0.590826,-0.4994181 -0.868218,-0.5736177 -1.083989,-0.289957 -0.132381,0.174033 -0.203554,0.436775 -0.344725,1.272576 -0.05197,0.307689 -0.120905,0.674134 -0.15319,0.814322 -0.454202,1.972241 -1.331748,3.092208 -3.103505,3.960844 -0.432041,0.211816 -0.785751,0.355307 -1.544056,0.626386 -1.713621,0.612586 -2.9786632,1.213221 -4.0510321,1.923409 -0.3664766,0.242703 -0.610566,0.431669 -1.187193,0.919086 -0.2392017,0.202194 -0.4454912,0.373706 -0.458421,0.381137 -0.01293,0.0074 -0.1095039,-0.12541 -0.2146088,-0.295203 z"
     id="path4284"
     inkscape:connector-curvature="0" />
  <path
     style="fill:#9b1c47;fill-opacity:0;stroke:none;fill-rule:nonzero"
     d="M 6.2220931,19.726959 C 5.9359937,19.264779 5.8930502,19.180826 5.8053632,18.91227 5.424034,17.744386 5.8853568,16.419641 7.0946922,15.209803 7.5765184,14.727776 7.9793656,14.416746 8.7629715,13.921757 9.8294517,13.248082 10.492933,12.729274 11.163625,12.04457 12.078934,11.11014 12.559771,10.212831 12.559982,9.4387721 12.560052,9.174849 12.517955,8.9774914 12.417746,8.7719686 12.156041,8.2352269 11.482707,7.793158 10.926877,7.793158 c -0.770854,0 -1.5341506,0.7186117 -2.0566023,1.9362037 C 8.804642,9.8823215 8.708812,10.129653 8.6573196,10.278986 8.5843406,10.490634 8.1885507,11.873463 8.0254691,12.486575 l -0.025921,0.09745 -1.0047564,0.01117 c -1.0313515,0.01146 -1.1997723,0.0248 -1.5924758,0.126106 -0.2337501,0.0603 -0.4595848,0.177979 -0.5996032,0.312442 -0.1612321,0.154835 -0.2689768,0.218324 -0.4955854,0.292026 -0.3345376,0.108805 -0.5854145,0.133002 -1.3789764,0.133002 -0.4008979,0 -0.7633796,-0.0069 -0.8055149,-0.01532 -0.067342,-0.01347 -0.018639,-0.03565 0.4025877,-0.183317 0.7847275,-0.275108 1.24207,-0.503336 1.7025173,-0.84961 0.2841322,-0.213678 0.6982387,-0.423264 1.0805398,-0.546877 0.1551579,-0.05017 0.5307105,-0.14187 0.8345614,-0.203783 0.3038509,-0.06191 0.5649219,-0.124156 0.5801577,-0.13832 0.031402,-0.02919 0.4373382,-1.423829 0.5651747,-1.9417183 C 7.389207,9.1705248 7.4087859,8.8469066 7.3334268,8.8318534 7.2432676,8.8138441 7.0076185,9.1186872 6.6507897,9.7149344 6.2878368,10.321414 6.0197444,10.596834 5.6718964,10.720579 c -0.05776,0.02055 -0.27535,0.05184 -0.4835324,0.06953 -0.6822629,0.05798 -1.0315227,0.224232 -1.5956436,0.759545 -0.3137829,0.297759 -0.5851816,0.490787 -0.8414204,0.598447 -0.1422452,0.05977 -0.2062749,0.07241 -0.3933046,0.07768 -0.2496854,0.007 -0.3894525,0.04731 -0.6642747,0.191429 -0.2433717,0.127624 -0.4290666,0.274106 -0.88330942,0.696782 -0.22002022,0.20473 -0.40879736,0.370482 -0.41950473,0.368337 -0.0107074,-0.0021 -0.0710857,-0.270152 -0.13417416,-0.595571 l -0.1147062,-0.59167 -0.001492,-0.552456 c -0.001243,-0.460234 0.007263,-0.608793 0.0509524,-0.889938 0.11297651,-0.727011 0.3639594,-1.503479 0.64250554,-1.9877249 0.052746,-0.091698 0.2135652,-0.3240628 0.3573759,-0.5163665 l 0.2614739,-0.3496434 0.014884,0.1498189 c 0.00819,0.0824 0.01612,0.2721782 0.017632,0.421729 0.00151,0.1495508 0.01429,0.3343467 0.028397,0.4106578 0.084934,0.4594519 0.3495797,0.533718 0.7732233,0.2169853 C 2.7307421,8.8663742 3.3720567,8.1693504 3.7310855,7.6285966 4.037847,7.1665653 4.1748954,6.7844805 4.2133503,6.2840648 4.2415667,5.916883 4.2968692,5.7007315 4.440151,5.3976101 4.6308635,4.9941448 4.9221161,4.6034777 5.3811982,4.1353501 5.6425041,3.8688958 5.7950579,3.7496492 5.8746311,3.7496492 c 0.072201,0 0.082564,0.022362 0.1056127,0.2278853 0.032072,0.2859828 0.1340308,0.4065201 0.3596939,0.4252338 0.2387597,0.0198 0.5009446,-0.072082 0.8295032,-0.2906978 C 7.4542819,3.922544 7.7212475,3.657622 8.037733,3.2504258 9.3920505,1.5079347 10.618065,0.59499866 11.867228,0.39884147 c 0.320556,-0.0503372 0.815762,-0.0357255 1.116667,0.0329486 0.210788,0.048107 1.123822,0.36526037 1.162301,0.40373891 0.01438,0.0143824 -0.100414,0.0228039 -0.317161,0.0232671 -0.54059,0.001155 -0.834981,0.053037 -1.206943,0.21270475 -0.450842,0.1935279 -0.830079,0.484579 -1.032412,0.7923417 -0.168853,0.2568363 -0.193387,0.3465579 -0.187818,0.6868593 0.0052,0.3180857 0.02586,0.4311114 0.08073,0.4416835 0.01933,0.00372 0.401761,-0.1203585 0.849853,-0.2757395 0.448091,-0.1553809 0.934016,-0.3141016 1.079834,-0.3527126 1.141405,-0.3022318 2.262123,-0.2732475 3.295866,0.085238 0.202317,0.07016 1.382197,0.5811313 1.56347,0.6770927 0.04534,0.024 0.05168,0.035072 0.02526,0.044123 -0.01939,0.00665 -0.326185,0.071355 -0.681755,0.1437991 -1.723885,0.3512246 -2.137553,0.452763 -2.421403,0.5943545 -0.285347,0.1423378 -0.281276,0.2488563 0.01469,0.3842605 0.184242,0.084292 0.564651,0.1843492 1.112657,0.2926574 0.512668,0.1013242 0.725964,0.172608 1.153812,0.3856066 0.687397,0.3422114 1.427152,0.8614954 1.891825,1.3279993 0.304485,0.305685 0.419421,0.4768242 0.406839,0.605779 -0.0065,0.066961 -0.01929,0.079076 -0.113154,0.1074207 -0.136213,0.041135 -0.96458,0.022407 -1.304737,-0.029499 -0.129298,-0.01973 -0.394307,-0.04269 -0.588908,-0.051023 -0.364584,-0.015611 -0.487015,0.00122 -0.563236,0.077445 -0.127041,0.1270402 0.09486,0.4415147 0.684936,0.9706624 0.960965,0.8617481 1.264395,1.2908893 1.438794,2.0348871 0.04744,0.202377 0.244137,1.472113 0.230207,1.486043 -0.0037,0.0037 -0.227995,-0.200369 -0.49846,-0.453462 -0.270464,-0.253093 -0.583741,-0.537924 -0.696169,-0.632959 -0.590826,-0.4994181 -0.868218,-0.5736177 -1.083989,-0.289957 -0.132381,0.174033 -0.203554,0.436775 -0.344725,1.272576 -0.05197,0.307689 -0.120905,0.674134 -0.15319,0.814322 -0.454202,1.972241 -1.331748,3.092208 -3.103505,3.960844 -0.432041,0.211816 -0.785751,0.355307 -1.544056,0.626386 -1.713621,0.612586 -2.9786632,1.213221 -4.0510321,1.923409 -0.3664766,0.242703 -0.610566,0.431669 -1.187193,0.919086 -0.2392017,0.202194 -0.4454912,0.373706 -0.458421,0.381137 -0.01293,0.0074 -0.1095039,-0.12541 -0.2146088,-0.295203 z"
     id="path4286"
     inkscape:connector-curvature="0" />
</svg>
