<?xml version="1.0" encoding="UTF-8" standalone="no"?>
<svg
   xmlns:dc="http://purl.org/dc/elements/1.1/"
   xmlns:cc="http://creativecommons.org/ns#"
   xmlns:rdf="http://www.w3.org/1999/02/22-rdf-syntax-ns#"
   xmlns:svg="http://www.w3.org/2000/svg"
   xmlns="http://www.w3.org/2000/svg"
   xmlns:sodipodi="http://sodipodi.sourceforge.net/DTD/sodipodi-0.dtd"
   xmlns:inkscape="http://www.inkscape.org/namespaces/inkscape"
   width="354.17279mm"
   height="433.57904mm"
   viewBox="0 0 354.17279 433.57904"
   version="1.1"
   id="svg1926"
   inkscape:version="1.0.2 (e86c870879, 2021-01-15)"
   sodipodi:docname="ensorceleur.svg">
  <defs
     id="defs1920">
    <clipPath
       clipPathUnits="userSpaceOnUse"
       id="clipPath1840">
      <path
         d="M 0,2020 H 2020 V 0 H 0 Z"
         id="path1838" />
    </clipPath>
  </defs>
  <sodipodi:namedview
     id="base"
     pagecolor="#ffffff"
     bordercolor="#666666"
     borderopacity="1.0"
     inkscape:pageopacity="0.0"
     inkscape:pageshadow="2"
     inkscape:zoom="0.35"
     inkscape:cx="255.01723"
     inkscape:cy="1399.362"
     inkscape:document-units="mm"
     inkscape:current-layer="layer1"
     inkscape:document-rotation="0"
     showgrid="false"
     inkscape:window-width="1635"
     inkscape:window-height="915"
     inkscape:window-x="0"
     inkscape:window-y="105"
     inkscape:window-maximized="0" />
  <metadata
     id="metadata1923">
    <rdf:RDF>
      <cc:Work
         rdf:about="">
        <dc:format>image/svg+xml</dc:format>
        <dc:type
           rdf:resource="http://purl.org/dc/dcmitype/StillImage" />
        <dc:title></dc:title>
      </cc:Work>
    </rdf:RDF>
  </metadata>
  <g
     inkscape:label="Calque 1"
     inkscape:groupmode="layer"
     id="layer1"
     transform="translate(95.443546,222.08119)">
    <g
       id="g1834"
       transform="matrix(0.35277777,0,0,-0.35277777,-255.34444,358.93427)"
       style="fill:#bab468;fill-opacity:1">
      <g
         id="g1836"
         clip-path="url(#clipPath1840)"
         style="fill:#bab468;fill-opacity:1">
        <g
           id="g1842"
           transform="translate(1318.1318,1123.623)"
           style="fill:#bab468;fill-opacity:1">
          <path
             d="m 0,0 c 132.714,-225.36 32.23,-382.504 32.23,-382.504 5.411,220.117 -132.757,290.364 -132.757,290.364 l -0.016,-0.003 c 29.787,-40.194 47.561,-90.6 47.561,-145.371 0,-131.276 -101.838,-237.696 -227.461,-237.696 -125.623,0 -224.236,106.457 -227.46,237.696 -1.353,55.037 28.404,146.343 112.716,232.354 55.298,56.413 95.131,116.173 114.68,155.976 77.958,158.737 21.029,340.162 -34.346,372.534 0,0 77.017,-176.497 -42.462,-326.736 -58.874,-74.031 -140.314,-134.062 -208.14,-196.371 -17.191,-14.941 -74.889,-81.723 -96.271,-117.309 -32.186,-53.571 -48.615,-115.204 -48.615,-180.274 0,-225.527 188.738,-408.353 421.557,-408.353 232.82,0 427.869,185.447 427.869,410.973 C 139.085,-177.478 76.866,-53.318 0,0"
             style="fill:#bab468;fill-opacity:1;fill-rule:nonzero;stroke:none"
             id="path1844" />
        </g>
        <g
           id="g1846"
           transform="translate(1078.9365,928.0063)"
           style="fill:#bab468;fill-opacity:1">
          <path
             d="M 0,0 -43.728,201.259 -87.455,0 c -2.118,-9.748 -9.886,-17.417 -19.907,-19.654 l -213.646,-47.683 213.645,-47.682 c 10.022,-2.236 17.79,-9.906 19.908,-19.654 L -43.728,-335.933 0,-134.673 c 2.118,9.748 9.887,17.418 19.908,19.654 L 233.553,-67.337 19.908,-19.654 C 9.887,-17.417 2.118,-9.748 0,0"
             style="fill:#bab468;fill-opacity:1;fill-rule:nonzero;stroke:none"
             id="path1848" />
        </g>
        <g
           id="g1850"
           transform="translate(1234.5767,1228.6421)"
           style="fill:#bab468;fill-opacity:1">
          <path
             d="M 0,0 -17.219,79.25 -34.438,0 c -2.229,-10.264 -10.409,-18.339 -20.96,-20.694 l -84.456,-18.849 84.456,-18.849 c 10.551,-2.355 18.731,-10.431 20.96,-20.694 L -17.219,-158.337 0,-79.086 c 2.23,10.263 10.409,18.339 20.96,20.694 l 84.456,18.849 -84.456,18.849 C 10.409,-18.339 2.23,-10.264 0,0"
             style="fill:#bab468;fill-opacity:1;fill-rule:nonzero;stroke:none"
             id="path1852" />
        </g>
        <g
           id="g1854"
           transform="translate(828.2632,1383.1279)"
           style="fill:#bab468;fill-opacity:1">
          <path
             d="m 0,0 c 6.086,-23.912 -2.128,-50.52 -22.656,-80.251 -58.689,-85.001 -170.901,-191.701 -231.631,-311.837 -91.976,-181.95 -27.503,-367.842 36.228,-443.834 0,0 -244.977,159.847 -122.794,433.583 26.021,58.295 79.879,127.375 183.276,216.943 35.544,30.789 79.494,68.898 116.098,109.784 C -19.516,-51.081 -4.734,-26.423 0,0"
             style="fill:#bab468;fill-opacity:1;fill-rule:nonzero;stroke:none"
             id="path1856" />
        </g>
      </g>
    </g>
  </g>
</svg>
