<?xml version="1.0" encoding="UTF-8" standalone="no"?>
<svg
   xmlns:dc="http://purl.org/dc/elements/1.1/"
   xmlns:cc="http://creativecommons.org/ns#"
   xmlns:rdf="http://www.w3.org/1999/02/22-rdf-syntax-ns#"
   xmlns:svg="http://www.w3.org/2000/svg"
   xmlns="http://www.w3.org/2000/svg"
   xmlns:sodipodi="http://sodipodi.sourceforge.net/DTD/sodipodi-0.dtd"
   xmlns:inkscape="http://www.inkscape.org/namespaces/inkscape"
   version="1.0"
   width="1279.5016pt"
   height="284.69046pt"
   viewBox="0 0 1279.5016 284.69046"
   preserveAspectRatio="xMidYMid meet"
   id="svg885"
   sodipodi:docname="epines.svg"
   inkscape:version="1.0.2 (e86c870879, 2021-01-15)">
  <defs
     id="defs889" />
  <sodipodi:namedview
     pagecolor="#ffffff"
     bordercolor="#666666"
     borderopacity="1"
     objecttolerance="10"
     gridtolerance="10"
     guidetolerance="10"
     inkscape:pageopacity="0"
     inkscape:pageshadow="2"
     inkscape:window-width="1920"
     inkscape:window-height="1023"
     id="namedview887"
     showgrid="false"
     inkscape:zoom="0.56367188"
     inkscape:cx="853.33553"
     inkscape:cy="188.23462"
     inkscape:window-x="0"
     inkscape:window-y="0"
     inkscape:window-maximized="1"
     inkscape:current-layer="svg885" />
  <metadata
     id="metadata879">
Created by potrace 1.15, written by Peter Selinger 2001-2017
<rdf:RDF>
  <cc:Work
     rdf:about="">
    <dc:format>image/svg+xml</dc:format>
    <dc:type
       rdf:resource="http://purl.org/dc/dcmitype/StillImage" />
  </cc:Work>
</rdf:RDF>
</metadata>
  <g
     transform="matrix(0.1,0,0,-0.1,0.00164609,461.17596)"
     fill="#bab468"
     stroke="none"
     id="g883">
    <path
       d="m 4527,4402 c -126,-247 -166,-312 -230,-379 -32,-34 -50,-44 -86,-49 -156,-21 -351,-87 -604,-204 -86,-40 -160,-71 -163,-68 -3,3 -21,50 -40,103 -32,90 -53,186 -130,585 -25,129 -29,141 -37,110 -21,-86 -8,-636 19,-757 2,-13 1,-23 -3,-23 -5,0 -62,47 -128,105 -119,105 -204,158 -275,172 -29,5 -33,4 -24,-8 6,-8 53,-66 104,-129 51,-63 115,-148 141,-188 54,-82 89,-164 73,-169 -24,-8 -194,-109 -336,-200 -83,-53 -187,-115 -232,-139 -82,-44 -205,-94 -230,-94 -19,0 -61,99 -85,200 -11,47 -34,141 -50,210 -16,69 -40,148 -52,175 l -22,50 -10,-50 c -7,-35 -6,-122 3,-282 13,-250 9,-338 -21,-420 -28,-74 -39,-80 -91,-47 -24,15 -142,77 -263,137 -121,60 -251,127 -288,150 l -68,42 7,65 c 14,135 65,256 199,470 83,132 141,247 131,257 -14,15 -180,-173 -284,-322 -119,-171 -198,-270 -206,-257 -2,4 -9,43 -15,87 -6,43 -22,103 -35,132 -57,122 -175,263 -223,263 -7,0 12,-49 42,-113 72,-148 96,-243 98,-379 1,-58 0,-109 -3,-111 -3,-3 -37,4 -75,15 -52,15 -110,22 -223,25 -232,8 -348,-15 -609,-119 C 51,3188 0,3155 0,3119 c 0,-24 -3,-24 72,6 303,118 683,112 1065,-19 154,-53 276,-106 423,-186 86,-46 235,-134 248,-145 8,-7 -204,-66 -277,-76 -106,-15 -384,-6 -506,15 -178,32 -554,138 -628,178 -10,5 -21,8 -23,5 -8,-8 139,-100 244,-152 224,-110 515,-195 787,-230 89,-12 85,-7 85,-98 0,-114 -22,-240 -70,-396 -23,-73 -44,-141 -46,-150 -3,-9 15,7 41,34 58,63 121,186 175,340 90,256 98,273 133,283 18,5 104,39 193,76 l 161,68 134,-45 c 74,-25 206,-62 294,-82 425,-99 460,-109 457,-130 -1,-11 -5,-62 -9,-113 -5,-84 -4,-92 11,-86 24,9 43,51 56,124 22,126 23,127 93,135 131,15 279,60 566,174 l 53,22 -7,-48 c -4,-26 -24,-106 -46,-177 -21,-72 -39,-137 -39,-145 0,-25 67,47 125,134 29,44 89,154 132,245 l 80,165 229,152 c 126,83 268,170 315,193 l 86,43 119,-90 c 254,-192 388,-265 532,-293 l 44,-8 -34,35 c -18,19 -100,85 -183,147 -159,119 -232,191 -270,266 l -23,46 108,57 c 59,31 139,70 178,86 60,25 73,27 82,15 16,-18 110,-61 237,-108 248,-92 268,-185 112,-528 -28,-62 -62,-143 -75,-180 -24,-67 -32,-152 -16,-162 5,-3 49,68 98,157 83,150 179,294 217,325 14,12 16,8 22,-30 4,-24 1,-107 -5,-183 -6,-76 -9,-159 -5,-183 7,-48 24,-92 35,-92 9,0 35,115 65,290 36,206 86,343 118,324 6,-4 131,-84 277,-177 302,-193 440,-287 440,-298 0,-4 -46,-57 -103,-117 -94,-99 -179,-212 -159,-212 20,0 109,66 208,155 60,54 131,112 158,131 l 49,33 46,-23 c 25,-13 89,-39 142,-60 53,-20 117,-50 142,-66 52,-35 47,-16 77,-310 24,-240 51,-421 61,-415 11,7 27,118 34,240 11,172 40,298 74,319 4,3 23,-35 41,-84 30,-87 81,-160 109,-160 7,0 11,37 11,118 0,143 6,156 66,142 54,-12 382,-31 503,-29 l 94,2 48,-82 c 26,-44 60,-97 75,-116 45,-59 105,-93 133,-76 11,7 8,19 -19,62 -29,48 -80,167 -80,188 0,4 26,4 58,0 59,-8 135,-3 352,26 184,25 299,7 354,-54 16,-18 16,-21 -3,-60 -47,-90 -115,-145 -307,-246 -61,-31 -122,-66 -135,-77 l -24,-19 50,7 c 139,18 320,88 547,209 l 161,86 41,-15 c 93,-34 209,-50 376,-50 91,-1 195,3 233,7 l 67,8 v -104 c 0,-127 9,-199 24,-194 6,2 20,19 30,37 16,27 21,60 25,163 l 6,130 85,18 c 101,21 146,36 352,122 271,114 388,139 541,117 48,-7 87,-17 87,-23 0,-25 -95,-133 -249,-284 -91,-89 -160,-163 -153,-163 20,0 145,65 210,109 31,21 109,80 172,130 93,74 185,134 242,159 16,7 7,-59 -22,-171 -30,-115 -37,-181 -22,-191 13,-8 69,92 123,221 62,144 101,214 138,246 25,21 54,27 232,51 432,57 542,79 659,134 l 65,30 -45,1 c -25,1 -153,-8 -285,-20 -306,-26 -651,-29 -781,-6 -154,28 -154,25 3,95 76,33 214,95 307,137 317,143 554,219 781,247 l 110,15 -55,12 c -30,7 -111,15 -180,18 -191,8 -383,-28 -674,-127 -66,-22 -121,-38 -124,-36 -2,3 6,41 17,86 24,92 54,155 149,315 63,107 106,194 99,201 -2,2 -26,-11 -52,-28 -118,-78 -221,-216 -385,-517 -57,-104 -103,-176 -115,-181 -11,-5 -81,-27 -155,-49 -143,-44 -264,-64 -324,-54 -33,5 -39,12 -82,92 -83,151 -173,280 -269,380 -80,82 -215,194 -215,177 0,-3 30,-46 66,-97 127,-175 181,-300 191,-437 l 6,-82 -34,7 c -19,5 -92,8 -164,7 -111,0 -160,-7 -337,-42 -162,-33 -229,-42 -308,-42 h -102 l 7,33 c 4,17 17,68 30,112 31,108 41,175 26,175 -23,0 -62,-34 -85,-74 -13,-23 -38,-85 -55,-138 -40,-120 -79,-178 -121,-178 -16,0 -91,-13 -167,-29 -130,-28 -189,-36 -240,-32 -21,1 -22,2 -9,45 8,25 34,83 60,130 25,47 66,123 90,169 40,73 82,194 72,204 -6,7 -97,-94 -202,-222 -107,-131 -240,-292 -260,-314 -10,-11 -45,10 -211,131 -236,173 -343,246 -481,324 -56,32 -102,64 -102,70 0,26 63,133 108,184 27,30 97,93 155,140 58,46 104,86 102,88 -9,9 -136,-32 -191,-63 -35,-20 -120,-80 -191,-135 -252,-196 -360,-226 -559,-154 l -41,15 8,42 c 4,23 15,71 23,107 24,98 17,200 -13,200 -14,0 -37,-66 -56,-160 -48,-244 -80,-281 -225,-265 -74,8 -129,36 -183,94 -58,62 -94,135 -168,337 -33,90 -75,191 -94,223 -34,58 -107,131 -131,131 -7,0 3,-39 28,-107 51,-141 68,-213 68,-296 v -69 l -47,42 c -160,141 -368,206 -953,300 -107,17 -197,33 -199,36 -2,2 3,40 11,83 17,86 70,203 162,360 30,51 62,113 70,138 15,44 15,44 -7,38 -86,-26 -153,-111 -272,-344 -149,-291 -202,-341 -363,-341 -81,0 -175,31 -335,112 -67,33 -151,72 -187,84 -61,22 -65,25 -62,51 2,15 23,151 48,300 25,150 44,287 42,305 -3,29 -19,2 -121,-200 z m -167,-680 c 0,-17 -84,-88 -191,-161 -61,-42 -123,-91 -137,-109 l -26,-34 50,7 c 89,13 167,43 324,124 198,101 245,115 367,109 52,-3 96,-8 100,-12 10,-9 -34,-53 -102,-101 -62,-44 -335,-196 -485,-270 -179,-89 -260,-84 -537,34 -143,60 -203,79 -203,64 0,-15 52,-79 85,-106 17,-13 57,-41 90,-61 66,-42 135,-104 135,-121 0,-14 -155,-142 -256,-211 -132,-91 -270,-149 -413,-174 -34,-6 -64,-10 -66,-8 -2,2 4,32 13,67 13,56 14,81 4,185 -22,221 -15,262 53,331 59,59 150,112 425,252 340,172 433,201 648,202 67,1 122,-3 122,-7 z m 1555,-148 c 184,-31 391,-118 617,-257 57,-35 171,-106 253,-157 83,-52 151,-95 153,-96 2,-1 -12,-40 -31,-85 -40,-96 -25,-93 -177,-42 -151,50 -447,199 -730,368 -135,80 -298,172 -362,203 -64,31 -117,60 -117,64 -2,20 280,22 394,2 z M 2923,3005 c 27,-104 47,-223 47,-281 v -52 l -71,-7 c -126,-13 -279,9 -450,65 -94,30 -128,45 -119,53 39,34 227,165 277,194 110,61 234,105 283,99 9,-1 21,-27 33,-71 z m 4367,-77 c 0,-13 -14,-71 -32,-130 l -32,-106 -98,49 c -109,55 -116,66 -76,125 37,53 101,80 201,83 32,1 37,-2 37,-21 z m 447,12 c 138,-12 235,-32 321,-66 37,-15 68,-27 69,-28 1,-1 9,-58 17,-126 9,-69 20,-140 26,-159 5,-19 7,-37 4,-40 -3,-3 -74,-6 -157,-5 -123,0 -187,7 -337,33 -102,17 -196,34 -209,37 l -24,5 6,162 c 3,89 9,170 12,180 6,14 20,17 84,17 42,0 126,-5 188,-10 z m 659,-217 c 27,-9 71,-29 98,-45 62,-37 206,-146 206,-157 0,-8 -92,-25 -200,-37 -49,-5 -165,8 -178,20 -4,4 19,236 23,236 1,0 24,-8 51,-17 z m 2173,-148 c 86,-13 176,-25 201,-27 l 45,-3 -54,-32 c -30,-17 -138,-60 -240,-94 -102,-34 -198,-68 -214,-76 -26,-13 -28,-12 -37,13 -6,15 -15,47 -21,73 -12,55 -47,131 -60,131 -21,0 3,20 34,29 57,17 186,11 346,-14 z m -693,-74 c 55,-25 106,-71 148,-136 60,-90 64,-85 -65,-85 -63,0 -130,3 -149,6 -36,6 -36,6 -59,96 -30,114 -23,138 41,138 24,0 61,-9 84,-19 z m -312,-36 c 3,-8 1,-27 -4,-41 -6,-14 -10,-36 -10,-50 0,-33 -32,-32 -138,4 -73,25 -81,30 -67,42 16,13 164,58 196,59 9,1 19,-6 23,-14 z"
       id="path881" />
  </g>
</svg>
