<?xml version="1.0" encoding="UTF-8" standalone="no"?>
<svg
   xmlns:dc="http://purl.org/dc/elements/1.1/"
   xmlns:cc="http://creativecommons.org/ns#"
   xmlns:rdf="http://www.w3.org/1999/02/22-rdf-syntax-ns#"
   xmlns:svg="http://www.w3.org/2000/svg"
   xmlns="http://www.w3.org/2000/svg"
   xmlns:sodipodi="http://sodipodi.sourceforge.net/DTD/sodipodi-0.dtd"
   xmlns:inkscape="http://www.inkscape.org/namespaces/inkscape"
   width="390.29004mm"
   height="367.61478mm"
   viewBox="0 0 390.29004 367.61478"
   version="1.1"
   id="svg4880"
   inkscape:version="1.0.2 (e86c870879, 2021-01-15)"
   sodipodi:docname="guerrier.svg">
  <defs
     id="defs4874">
    <clipPath
       clipPathUnits="userSpaceOnUse"
       id="clipPath4744">
      <path
         d="M 0,2020 H 2020 V 0 H 0 Z"
         id="path4742" />
    </clipPath>
  </defs>
  <sodipodi:namedview
     id="base"
     pagecolor="#ffffff"
     bordercolor="#666666"
     borderopacity="1.0"
     inkscape:pageopacity="0.0"
     inkscape:pageshadow="2"
     inkscape:zoom="0.35"
     inkscape:cx="1186.1274"
     inkscape:cy="1728.9908"
     inkscape:document-units="mm"
     inkscape:current-layer="layer1"
     inkscape:document-rotation="0"
     showgrid="false"
     inkscape:window-width="1635"
     inkscape:window-height="915"
     inkscape:window-x="0"
     inkscape:window-y="105"
     inkscape:window-maximized="0" />
  <metadata
     id="metadata4877">
    <rdf:RDF>
      <cc:Work
         rdf:about="">
        <dc:format>image/svg+xml</dc:format>
        <dc:type
           rdf:resource="http://purl.org/dc/dcmitype/StillImage" />
        <dc:title></dc:title>
      </cc:Work>
    </rdf:RDF>
  </metadata>
  <g
     inkscape:label="Calque 1"
     inkscape:groupmode="layer"
     id="layer1"
     transform="translate(341.79978,309.29548)">
    <g
       id="g4738"
       transform="matrix(0.35277777,0,0,-0.35277777,-507.99639,230.81747)"
       style="fill:#bab468;fill-opacity:1">
      <g
         id="g4740"
         clip-path="url(#clipPath4744)"
         style="fill:#bab468;fill-opacity:1">
        <g
           id="g4746"
           transform="translate(553.4961,1109.0493)"
           style="fill:#bab468;fill-opacity:1">
          <path
             d="m 0,0 c -11.71,-41.857 -18.108,-85.91 -18.108,-131.455 0,-98.307 29.283,-189.856 79.439,-266.58 l 49.632,49.632 40.745,40.746 c -28.999,52.259 -45.575,112.321 -45.575,176.202 0,8.212 0.372,16.335 0.909,24.413 l -0.842,0.842 z"
             style="fill:#bab468;fill-opacity:1;fill-rule:nonzero;stroke:none"
             id="path4748" />
        </g>
        <g
           id="g4750"
           transform="translate(998.2002,1340.9609)"
           style="fill:#bab468;fill-opacity:1">
          <path
             d="m 0,0 c 8.536,0.601 17.124,1.016 25.811,1.016 8.401,0 16.709,-0.39 24.969,-0.952 l 106.958,106.958 c -41.998,11.796 -86.211,18.244 -131.927,18.244 -45.972,0 -90.424,-6.52 -132.633,-18.444 L -0.064,0.064 Z"
             style="fill:#bab468;fill-opacity:1;fill-rule:nonzero;stroke:none"
             id="path4752" />
        </g>
        <g
           id="g4754"
           transform="translate(819.7168,977.5981)"
           style="fill:#bab468;fill-opacity:1">
          <path
             d="M 0,0 C 0,-18.616 2.706,-36.561 7.371,-53.699 L 61.375,0.306 7.496,54.185 C 2.747,36.903 0,18.791 0,0"
             style="fill:#bab468;fill-opacity:1;fill-rule:nonzero;stroke:none"
             id="path4756" />
        </g>
        <g
           id="g4758"
           transform="translate(1077.709,1174.521)"
           style="fill:#bab468;fill-opacity:1">
          <path
             d="m 0,0 c -17.138,4.665 -35.083,7.371 -53.698,7.371 -19.212,0 -37.728,-2.84 -55.356,-7.798 L -54.74,-54.74 Z"
             style="fill:#bab468;fill-opacity:1;fill-rule:nonzero;stroke:none"
             id="path4760" />
        </g>
        <g
           id="g4762"
           transform="translate(1188.5469,954.2021)"
           style="fill:#bab468;fill-opacity:1">
          <path
             d="m 0,0 31.961,-31.961 c 4.959,17.627 7.798,36.145 7.798,55.357 0,19.055 -2.806,37.422 -7.686,54.92 L -23.121,23.122 -0.063,0.064 Z"
             style="fill:#bab468;fill-opacity:1;fill-rule:nonzero;stroke:none"
             id="path4764" />
        </g>
        <g
           id="g4766"
           transform="translate(969.0908,780.9888)"
           style="fill:#bab468;fill-opacity:1">
          <path
             d="m 0,0 c 17.498,-4.88 35.865,-7.686 54.92,-7.686 18.791,0 36.903,2.748 54.185,7.497 L 54.458,54.458 Z"
             style="fill:#bab468;fill-opacity:1;fill-rule:nonzero;stroke:none"
             id="path4768" />
        </g>
        <g
           id="g4770"
           transform="translate(1205.9482,655.5312)"
           style="fill:#bab468;fill-opacity:1">
          <path
             d="m 0,0 -4.162,4.162 c -52.627,-29.548 -113.246,-46.481 -177.775,-46.481 -64.066,0 -124.288,16.678 -176.652,45.834 l -51.353,-51.354 -39.005,-39.005 c 76.81,-50.328 168.519,-79.716 267.01,-79.716 98.949,0 191.061,29.649 268.089,80.408 L 0.706,-0.706 Z"
             style="fill:#bab468;fill-opacity:1;fill-rule:nonzero;stroke:none"
             id="path4772" />
        </g>
        <g
           id="g4774"
           transform="translate(1420.4561,724.7007)"
           style="fill:#bab468;fill-opacity:1">
          <path
             d="m 0,0 13.109,-13.109 c 49.927,76.607 79.069,167.94 79.069,266.003 0,45.801 -6.471,90.093 -18.308,132.161 L -33.036,278.149 c 0.576,-8.355 0.973,-16.757 0.973,-25.255 0,-63.635 -16.439,-123.484 -45.229,-175.601 L -0.769,0.769 Z"
             style="fill:#bab468;fill-opacity:1;fill-rule:nonzero;stroke:none"
             id="path4776" />
        </g>
        <g
           id="g4778"
           transform="translate(1560.3643,1513.9507)"
           style="fill:#bab468;fill-opacity:1">
          <path
             d="m 0,0 c -36.552,36.552 -68.588,3.059 -68.588,3.059 0,0 20.532,-9.466 41.357,-30.29 20.096,-20.096 30.29,-41.357 30.29,-41.357 0,0 33.493,32.037 -3.059,68.588"
             style="fill:#bab468;fill-opacity:1;fill-rule:nonzero;stroke:none"
             id="path4780" />
        </g>
        <g
           id="g4782"
           transform="translate(1070.7803,1013.8813)"
           style="fill:#bab468;fill-opacity:1">
          <path
             d="m 0,0 -14.417,-3.932 3.932,14.417 215.813,215.813 10.484,-10.485 z m 473.856,201.251 -84.169,-7.281 c -13.867,29.466 -35.603,58.624 -54.002,80.553 l 141.959,141.959 c 0,0 -9.466,20.532 -30.29,41.357 -16.457,16.455 -41.357,30.289 -41.357,30.289 L 264.038,346.169 c -21.93,18.4 -51.088,40.137 -80.554,54.003 l 7.282,84.17 -16.019,-0.291 L 14.307,323.61 c 0,0 65.373,-5.673 142.07,-54.811 l -590.334,-590.334 -39.318,-141.255 141.254,39.318 590.334,590.335 C 304.773,95.725 312.651,26.374 312.651,26.374 l 160.914,158.858 z"
             style="fill:#bab468;fill-opacity:1;fill-rule:nonzero;stroke:none"
             id="path4784" />
        </g>
        <g
           id="g4786"
           transform="translate(556.7744,1517.0093)"
           style="fill:#bab468;fill-opacity:1">
          <path
             d="m 0,0 c 0,0 -32.037,33.493 -68.588,-3.058 -36.552,-36.552 -3.058,-68.588 -3.058,-68.588 0,0 10.194,21.26 30.29,41.356 C -20.532,-9.466 0,0 0,0"
             style="fill:#bab468;fill-opacity:1;fill-rule:nonzero;stroke:none"
             id="path4788" />
        </g>
        <g
           id="g4790"
           transform="translate(947.7227,1043.9297)"
           style="fill:#bab468;fill-opacity:1">
          <path
             d="M 0,0 -185.765,185.765 -175.28,196.25 10.485,10.485 56.211,56.211 -126.329,238.75 c 76.698,49.138 142.07,54.812 142.07,54.812 l -160.44,160.44 -16.019,0.292 7.281,-84.17 c -29.465,-13.866 -58.624,-35.603 -80.553,-54.003 l -141.958,141.96 c 0,0 -24.902,-13.835 -41.357,-30.291 -20.825,-20.824 -30.291,-41.356 -30.291,-41.356 l 141.96,-141.959 c -18.399,-21.929 -40.136,-51.088 -54.003,-80.553 l -84.17,7.281 0.291,-16.019 160.914,-158.858 c 0,0 7.878,69.351 54.338,140.488 l 182.54,-182.54 0.523,0.522 z"
             style="fill:#bab468;fill-opacity:1;fill-rule:nonzero;stroke:none"
             id="path4792" />
        </g>
        <g
           id="g4794"
           transform="translate(1451.0459,551.0918)"
           style="fill:#bab468;fill-opacity:1">
          <path
             d="m 0,0 -39.318,141.254 -265.789,265.789 -85.435,-85.435 -0.769,-0.768 -15.733,-15.733 265.789,-265.789 z"
             style="fill:#bab468;fill-opacity:1;fill-rule:nonzero;stroke:none"
             id="path4796" />
        </g>
      </g>
    </g>
  </g>
</svg>
