<?xml version="1.0" encoding="UTF-8" standalone="no"?>
<svg
   xmlns:dc="http://purl.org/dc/elements/1.1/"
   xmlns:cc="http://creativecommons.org/ns#"
   xmlns:rdf="http://www.w3.org/1999/02/22-rdf-syntax-ns#"
   xmlns:svg="http://www.w3.org/2000/svg"
   xmlns="http://www.w3.org/2000/svg"
   xmlns:sodipodi="http://sodipodi.sourceforge.net/DTD/sodipodi-0.dtd"
   xmlns:inkscape="http://www.inkscape.org/namespaces/inkscape"
   width="438.1825mm"
   height="400.63702mm"
   viewBox="0 0 438.1825 400.63702"
   version="1.1"
   id="svg3382"
   inkscape:version="1.0.2 (e86c870879, 2021-01-15)"
   sodipodi:docname="paladin.svg">
  <defs
     id="defs3376">
    <clipPath
       clipPathUnits="userSpaceOnUse"
       id="clipPath3318">
      <path
         d="M 0,2020 H 2020 V 0 H 0 Z"
         id="path3316" />
    </clipPath>
  </defs>
  <sodipodi:namedview
     id="base"
     pagecolor="#ffffff"
     bordercolor="#666666"
     borderopacity="1.0"
     inkscape:pageopacity="0.0"
     inkscape:pageshadow="2"
     inkscape:zoom="0.35"
     inkscape:cx="1150.9185"
     inkscape:cy="1142.8236"
     inkscape:document-units="mm"
     inkscape:current-layer="layer1"
     inkscape:document-rotation="0"
     showgrid="false"
     inkscape:window-width="1635"
     inkscape:window-height="915"
     inkscape:window-x="279"
     inkscape:window-y="105"
     inkscape:window-maximized="0" />
  <metadata
     id="metadata3379">
    <rdf:RDF>
      <cc:Work
         rdf:about="">
        <dc:format>image/svg+xml</dc:format>
        <dc:type
           rdf:resource="http://purl.org/dc/dcmitype/StillImage" />
        <dc:title></dc:title>
      </cc:Work>
    </rdf:RDF>
  </metadata>
  <g
     inkscape:label="Calque 1"
     inkscape:groupmode="layer"
     id="layer1"
     transform="translate(332.4841,154.20541)">
    <g
       id="g3312"
       transform="matrix(0.35277777,0,0,-0.35277777,-469.69837,402.41864)"
       style="fill:#bab468;fill-opacity:1">
      <g
         id="g3314"
         clip-path="url(#clipPath3318)"
         style="fill:#bab468;fill-opacity:1">
        <g
           id="g3320"
           transform="translate(1628.2729,1577.832)"
           style="fill:#bab468;fill-opacity:1">
          <path
             d="m 0,0 -293.131,-489.658 19.721,74.431 c 0,0 -52.101,115.368 -219.571,250.584 l -31.013,4.962 v -279.115 l -29.772,26.05 v 269.192 l 23.57,9.924 -88.077,54.583 -88.077,-54.583 23.57,-9.924 v -269.192 l -29.772,-26.05 v 279.115 l -31.013,-4.962 c -167.47,-135.216 -219.571,-250.584 -219.571,-250.584 l 19.721,-74.431 L -1236.546,0 c -2.47,-49.744 -4.162,-116.651 -1.199,-186.339 l 149.69,-202.194 c -2.808,-2.259 -1.572,-1.265 -4.38,-3.523 l -142.94,158.871 c 3.633,-51.195 10.156,-97.269 21.115,-142.597 l 134.92,-124.227 c -2.252,-2.739 -1.315,-1.6 -3.567,-4.339 l -119.924,82.79 c 13.743,-43.394 32.544,-81.968 56.453,-124.64 5.387,-7.939 8.743,-12.515 8.743,-12.515 l 107.852,-64.198 c -1.539,-3.11 -0.948,-1.917 -2.487,-5.028 l -85.931,29.506 c 39.968,-58.624 95.771,-116.52 157.546,-166.619 v -98.686 c 0,-16.432 -4.232,-32.587 -12.288,-46.908 l -21.206,-37.7 306.407,-187.318 14.887,500.866 h -136.457 c -65.748,45.899 -71.95,111.647 -71.95,111.647 h 191.039 c -7.772,12.718 -4.755,29.244 7.011,38.395 l 5.394,4.195 59.545,-98.827 59.545,98.827 5.395,-4.195 c 11.765,-9.151 14.782,-25.677 7.01,-38.395 h 191.039 c 0,0 -6.202,-65.748 -71.949,-111.647 H -563.69 l 14.886,-500.866 306.407,187.318 -21.206,37.7 c -8.056,14.321 -12.288,30.476 -12.288,46.908 v 98.686 c 61.775,50.099 117.578,107.995 157.546,166.619 l -85.931,-29.506 c -1.538,3.111 -0.948,1.918 -2.487,5.028 l 107.852,64.198 c 0,0 3.356,4.576 8.743,12.515 23.909,42.672 42.71,81.246 56.453,124.64 l -119.924,-82.79 c -2.252,2.739 -1.315,1.6 -3.567,4.339 l 134.92,124.227 c 10.959,45.328 17.482,91.402 21.116,142.597 l -142.941,-158.871 c -2.808,2.258 -1.572,1.264 -4.38,3.523 L 1.199,-186.339 C 4.162,-116.651 2.47,-49.744 0,0"
             style="fill:#bab468;fill-opacity:1;fill-rule:nonzero;stroke:none"
             id="path3322" />
        </g>
      </g>
    </g>
  </g>
</svg>
