<?xml version="1.0" encoding="UTF-8" standalone="no"?>
<!-- Created with Inkscape (http://www.inkscape.org/) -->

<svg
   xmlns:dc="http://purl.org/dc/elements/1.1/"
   xmlns:cc="http://creativecommons.org/ns#"
   xmlns:rdf="http://www.w3.org/1999/02/22-rdf-syntax-ns#"
   xmlns:svg="http://www.w3.org/2000/svg"
   xmlns="http://www.w3.org/2000/svg"
   xmlns:sodipodi="http://sodipodi.sourceforge.net/DTD/sodipodi-0.dtd"
   xmlns:inkscape="http://www.inkscape.org/namespaces/inkscape"
   id="svg3411"
   version="1.1"
   inkscape:version="0.91 r13725"
   width="20.1"
   height="20.1"
   viewBox="0 0 20.1 20.1"
   sodipodi:docname="dragon.svg">
  <metadata
     id="metadata3417">
    <rdf:RDF>
      <cc:Work
         rdf:about="">
        <dc:format>image/svg+xml</dc:format>
        <dc:type
           rdf:resource="http://purl.org/dc/dcmitype/StillImage" />
        <dc:title></dc:title>
      </cc:Work>
    </rdf:RDF>
  </metadata>
  <defs
     id="defs3415" />
  <sodipodi:namedview
     pagecolor="#ffffff"
     bordercolor="#666666"
     borderopacity="1"
     objecttolerance="10"
     gridtolerance="10"
     guidetolerance="10"
     inkscape:pageopacity="0"
     inkscape:pageshadow="2"
     inkscape:window-width="1920"
     inkscape:window-height="1029"
     id="namedview3413"
     showgrid="false"
     inkscape:zoom="42.537313"
     inkscape:cx="7.2407019"
     inkscape:cy="10.05"
     inkscape:window-x="0"
     inkscape:window-y="0"
     inkscape:window-maximized="1"
     inkscape:current-layer="svg3411" />
  <path
     style="fill:#000000"
     d="M 6.0582228,19.481747 C 5.006205,17.797199 6.0879678,15.536726 8.7077148,13.945313 11.960909,11.969103 13.408058,9.5242749 12.051378,8.2964964 10.721427,7.0929069 9.2411214,8.141793 8.4981294,10.814189 L 8.0016294,12.6 6.5875482,12.6 C 5.6965722,12.6 5.0353119,12.766467 4.8,13.05 4.5709686,13.325966 3.947643,13.49084 3.1882665,13.476316 L 1.95,13.452632 2.85,13.13717 C 3.345,12.963665 3.980721,12.620904 4.2627132,12.375477 4.5447054,12.13005 5.2150983,11.839324 5.7524754,11.729418 L 6.7295241,11.529591 7.1112186,10.211252 C 7.5952107,8.5395867 7.444674,8.385756 6.6473082,9.7371906 6.1616754,10.560277 5.8267479,10.8 5.1624117,10.8 c -0.529722,0 -1.1304144,0.29016 -1.5705147,0.758625 -0.3919806,0.417245 -0.9440854,0.720995 -1.2268999,0.675 -0.2828145,-0.04599 -0.8466093,0.228132 -1.2528774,0.609168 L 0.37345038,13.535585 0.17396512,12.472238 C -0.04876449,11.284987 0.35519604,9.4390407 1.0343228,8.5407306 L 1.480918,7.95 1.4904589,8.6072949 C 1.5064987,9.7122975 1.9846611,9.6503868 3.1173347,8.3966526 3.8508171,7.5847752 4.2,6.9098073 4.2,6.3038688 c 0,-0.571953 0.3212973,-1.247616 0.8912061,-1.8741357 0.7072668,-0.7775229 0.8930208,-0.867204 0.9,-0.4345167 C 6.0037101,4.7705523 7.1772948,4.3855854 7.95,3.3526791 9.8251944,0.84603015 11.653614,-0.09406429 13.4089,0.54594897 L 14.25,0.85263159 13.491752,0.87631578 C 12.473809,0.90811167 11.4,1.6990339 11.4,2.4170112 c 0,0.3206438 0.03375,0.5809562 0.075,0.5784719 0.04125,-0.00248 0.615,-0.1990588 1.275,-0.4368321 1.606587,-0.5787934 3.055916,-0.5525742 4.465699,0.080787 l 1.165699,0.5237038 -1.907672,0.3940233 C 14.45928,3.973242 14.487164,4.2500844 16.581414,4.6263291 17.649605,4.8182361 19.8,6.3542454 19.8,6.9253386 c 0,0.1447506 -0.6075,0.179916 -1.35,0.078145 -1.628242,-0.2231757 -1.679548,-0.0059 -0.286832,1.2147231 0.771536,0.6761979 1.111941,1.2609588 1.240974,2.1317931 l 0.177805,1.2 -0.882389,-0.825 c -1.219347,-1.1400423 -1.498769,-1.043913 -1.744045,0.6 -0.452256,3.031162 -1.615425,4.377449 -4.698493,5.43818 -2.118617,0.728911 -3.8564278,1.622624 -4.9587379,2.550157 L 6.4164459,20.055353 6.0582228,19.481747 Z"
     id="path3421"
     inkscape:connector-curvature="0" />
</svg>
