<?xml version="1.0" standalone="no"?>
<!DOCTYPE svg PUBLIC "-//W3C//DTD SVG 20010904//EN"
 "http://www.w3.org/TR/2001/REC-SVG-20010904/DTD/svg10.dtd">
<svg version="1.0" xmlns="http://www.w3.org/2000/svg"
 width="700.000000pt" height="700.000000pt" viewBox="0 0 700.000000 700.000000"
 preserveAspectRatio="xMidYMid meet">
<metadata>
Created by potrace 1.11, written by Peter Selinger 2001-2013
</metadata>
<g transform="translate(0.000000,700.000000) scale(0.100000,-0.100000)"
fill="#000000" stroke="none">
<path d="M4190 6872 c-126 -11 -312 -66 -435 -130 -316 -163 -598 -415 -910
-813 -149 -190 -249 -291 -359 -363 -135 -88 -251 -118 -325 -85 -49 21 -69
57 -75 134 -9 111 -46 109 -167 -8 -305 -296 -437 -525 -454 -784 -4 -54 -14
-127 -22 -163 -29 -122 -120 -292 -237 -440 -74 -95 -90 -112 -206 -233 -307
-319 -446 -338 -475 -64 -4 31 -7 113 -8 181 l-1 124 -40 -52 c-22 -28 -56
-71 -76 -96 -83 -104 -156 -236 -217 -393 -36 -95 -98 -322 -109 -403 -3 -27
-8 -52 -10 -55 -9 -16 -18 -159 -19 -304 0 -153 6 -227 26 -325 5 -25 16 -82
24 -126 8 -45 20 -105 26 -134 l11 -52 42 39 c22 22 77 74 121 115 195 185
352 282 474 293 25 3 70 7 98 9 104 9 221 79 376 225 186 174 338 253 515 266
159 12 183 16 234 36 106 42 189 123 285 279 180 292 237 370 274 370 16 0 19
-8 19 -46 0 -64 -31 -210 -86 -399 -25 -88 -47 -164 -48 -170 -14 -52 -33
-117 -61 -210 l-34 -111 -163 -33 c-199 -40 -292 -64 -383 -98 -114 -42 -242
-110 -323 -171 -90 -67 -158 -112 -170 -112 -5 0 -20 -8 -33 -18 -41 -31 -203
-101 -362 -156 -84 -30 -168 -60 -187 -68 l-35 -15 45 0 c535 -6 617 -2 736
32 87 25 144 55 200 106 83 75 169 112 324 138 111 18 185 22 493 22 l298 0 9
22 c5 12 52 175 104 362 135 487 194 645 314 845 48 80 156 221 194 255 59 53
125 105 132 105 4 0 20 8 34 19 45 32 161 62 237 62 249 0 520 -226 560 -466
47 -292 -124 -648 -492 -1020 -216 -219 -432 -391 -730 -580 -315 -201 -412
-270 -558 -399 -447 -393 -671 -865 -601 -1264 27 -155 61 -231 215 -480 20
-32 37 -49 44 -45 7 4 91 73 187 153 96 80 202 167 235 192 75 56 271 188 281
188 4 0 15 6 23 14 52 45 467 257 686 351 109 47 431 175 450 180 6 1 17 5 25
8 8 4 90 33 181 66 500 178 798 348 1044 596 128 129 218 256 301 425 81 165
75 152 118 283 32 96 75 259 90 342 20 105 46 256 51 292 2 23 14 82 25 132
83 372 192 371 596 -6 23 -21 92 -85 153 -143 62 -58 117 -107 122 -108 6 -2
8 7 5 20 -5 23 -13 74 -22 138 -2 19 -8 60 -14 90 -5 30 -12 78 -15 105 -41
337 -160 546 -465 815 -200 177 -320 315 -320 367 0 52 106 71 290 52 149 -16
184 -21 193 -26 15 -9 331 -10 374 -1 62 13 69 33 33 105 -53 105 -237 274
-477 437 -62 42 -115 76 -118 76 -3 0 -24 11 -46 25 -71 46 -252 132 -329 158
-41 14 -113 33 -160 42 -490 93 -617 163 -445 244 45 21 227 78 280 87 16 3
46 9 65 14 19 5 82 19 140 30 58 12 112 23 120 25 8 2 116 24 240 50 124 25
231 48 239 51 16 5 -3 18 -69 44 -19 8 -81 35 -138 62 -57 26 -105 48 -107 48
-2 0 -32 13 -67 29 -153 70 -363 133 -502 151 -45 6 -97 13 -116 16 -44 7
-311 6 -354 0 -17 -3 -53 -8 -81 -11 -27 -3 -84 -13 -125 -22 -41 -8 -82 -16
-90 -18 -53 -11 -154 -41 -266 -79 -71 -24 -203 -70 -293 -100 -90 -31 -169
-55 -174 -53 -15 5 -20 42 -21 162 -1 101 1 115 27 165 54 109 189 238 307
294 25 11 47 24 48 29 2 4 11 7 21 7 9 0 21 4 27 8 12 12 149 51 199 58 51 7
168 13 269 13 44 1 77 3 75 6 -3 2 -79 31 -169 64 -158 58 -241 83 -325 96
-45 8 -212 12 -265 7z"/>
</g>
</svg>
